<svg width="512" height="512" viewBox="0 0 512 512" fill="none" xmlns="http://www.w3.org/2000/svg">
<path d="M402.955 93.876C343.878 93.876 295.801 141.953 295.801 201.064C295.801 260.164 343.878 308.252 402.955 308.252C462.077 308.252 510.166 260.164 510.166 201.064C510.166 141.948 462.077 93.876 402.955 93.876ZM446.537 216.092H415.941V246.694C415.941 254.486 409.622 260.794 401.841 260.794C394.06 260.794 387.753 254.486 387.753 246.694V216.092H357.151C349.37 216.092 343.051 209.785 343.051 201.992C343.051 194.211 349.37 187.904 357.151 187.904H387.753V157.319C387.753 149.538 394.06 143.231 401.841 143.231C409.622 143.231 415.941 149.538 415.941 157.319V187.904H446.537C454.318 187.904 460.626 194.211 460.626 201.992C460.626 209.785 454.318 216.092 446.537 216.092Z" fill="#6EC4A7"/>
<path d="M143.506 310.48L118.638 440.371L149.33 464.919L179.988 440.388L154.748 310.48H143.506Z" fill="#6EC4A7"/>
<path d="M247.341 268.552C229.134 286.517 206.122 299.531 180.449 305.551L207.231 442.903C208.243 447.736 206.449 452.715 202.617 455.781L191.077 465.003C223.198 461.166 258.009 452.794 294.462 437.496V335.557C294.462 305.338 278.877 283.423 247.341 268.552Z" fill="#647F94"/>
<path d="M117.715 305.985C91.4398 300.128 67.8934 286.962 49.3433 268.654C19.1015 283.479 4.18038 305.366 4.18038 335.557V437.985C18.7189 444.742 56.1343 459.973 108.201 465.532L96.0366 455.798C92.1994 452.721 90.3989 447.764 91.3892 442.953L117.715 305.985Z" fill="#647F94"/>
<path d="M148.255 283.237C211.884 283.237 263.629 231.126 263.629 167.064C263.629 103.002 211.878 50.8849 148.255 50.8849C84.6825 50.8849 32.9593 102.996 32.9593 167.058C32.9593 231.12 84.6825 283.237 148.255 283.237Z" fill="#647F94"/>
</svg>
