<svg width="192" height="192" viewBox="0 0 192 192" fill="none" xmlns="http://www.w3.org/2000/svg">
<path d="M151.108 35.2035C128.954 35.2035 110.925 53.2325 110.925 75.399C110.925 97.5613 128.954 115.595 151.108 115.595C173.279 115.595 191.312 97.5613 191.312 75.399C191.312 53.2304 173.279 35.2035 151.108 35.2035ZM167.451 81.0345H155.978V92.5102C155.978 95.4324 153.608 97.7976 150.69 97.7976C147.772 97.7976 145.407 95.4324 145.407 92.5102V81.0345H133.932C131.014 81.0345 128.644 78.6693 128.644 75.7471C128.644 72.8292 131.014 70.464 133.932 70.464H145.407V58.9946C145.407 56.0766 147.772 53.7114 150.69 53.7114C153.608 53.7114 155.978 56.0766 155.978 58.9946V70.464H167.451C170.369 70.464 172.735 72.8292 172.735 75.7471C172.735 78.6693 170.369 81.0345 167.451 81.0345Z" fill="#6EC4A7"/>
<path d="M53.8149 116.43L44.4891 165.139L55.9986 174.344L67.4954 165.145L58.0304 116.43H53.8149Z" fill="#6EC4A7"/>
<path d="M92.7529 100.707C85.9253 107.444 77.2958 112.324 67.6684 114.582L77.7115 166.088C78.0913 167.901 77.4182 169.768 75.9814 170.918L71.654 174.376C83.6993 172.937 96.7532 169.798 110.423 164.061V125.834C110.423 114.502 104.579 106.284 92.7529 100.707Z" fill="#647F94"/>
<path d="M44.1431 114.744C34.2899 112.548 25.46 107.611 18.5037 100.745C7.16306 106.305 1.56763 114.512 1.56763 125.834V164.244C7.01958 166.778 21.0504 172.49 40.5753 174.574L36.0137 170.924C34.5747 169.77 33.8996 167.911 34.2709 166.107L44.1431 114.744Z" fill="#647F94"/>
<path d="M55.5956 106.214C79.4564 106.214 98.861 86.6722 98.861 62.649C98.861 38.6258 79.4543 19.0818 55.5956 19.0818C31.756 19.0818 12.3597 38.6236 12.3597 62.6469C12.3597 86.6701 31.756 106.214 55.5956 106.214Z" fill="#647F94"/>
</svg>
